<svg width="36" height="36" viewBox="0 0 36 36" fill="none" xmlns="http://www.w3.org/2000/svg">
<g clip-path="url(#clip0_37_310)">
<path d="M36 18C36 8.05333 27.9467 0 18 0C8.05333 0 0 8.05333 0 18C0 26.9867 6.58667 34.4267 15.2 35.7867V23.2H10.6133V18H15.2V14.0267C15.2 9.52 17.8667 7.04 21.9733 7.04C23.9467 7.04 26 7.38667 26 7.38667V11.8133H23.7333C21.4933 11.8133 20.8 13.2 20.8 14.6133V18H25.7867L24.9867 23.2H20.8V35.7867C29.4133 34.4267 36 26.9867 36 18Z" fill="#64C5BC"/>
<path d="M25.0133 23.2L25.8133 18H20.7999V14.6134C20.7999 13.2 21.4933 11.8134 23.7333 11.8134H25.9999V7.38671C25.9999 7.38671 23.9466 7.04004 21.9733 7.04004C17.8666 7.04004 15.1999 9.52004 15.1999 14.0267V18H10.6133V23.2H15.1999V35.7867C16.1066 35.92 17.0666 36 17.9999 36C18.9599 36 19.8933 35.92 20.7999 35.7867V23.2H25.0133Z" fill="white"/>
</g>
<defs>
<clipPath id="clip0_37_310">
<rect width="36" height="36" fill="white"/>
</clipPath>
</defs>
</svg>
