<svg width="36" height="36" viewBox="0 0 36 36" fill="none" xmlns="http://www.w3.org/2000/svg">
<g clip-path="url(#clip0_37_302)">
<path d="M18 36C27.9411 36 36 27.9411 36 18C36 8.05888 27.9411 0 18 0C8.05888 0 0 8.05888 0 18C0 27.9411 8.05888 36 18 36Z" fill="#8F519F"/>
<path d="M18.0001 8.71984C21.0134 8.71984 21.3867 8.71984 22.5867 8.77317C23.6801 8.8265 24.2934 9.01317 24.6934 9.17317C25.2267 9.3865 25.6001 9.6265 26.0001 10.0265C26.4001 10.4265 26.6401 10.7998 26.8534 11.3332C27.0134 11.7332 27.2001 12.3198 27.2534 13.4398C27.3067 14.6398 27.3067 14.9865 27.3067 18.0265C27.3067 21.0665 27.3067 21.4132 27.2534 22.6132C27.2001 23.7065 27.0134 24.3198 26.8534 24.7198C26.6401 25.2532 26.4001 25.6265 26.0001 26.0265C25.6001 26.4265 25.2267 26.6665 24.6934 26.8798C24.2934 27.0398 23.7067 27.2265 22.5867 27.2798C21.3867 27.3332 21.0401 27.3332 18.0001 27.3332C14.9867 27.3332 14.6134 27.3332 13.4134 27.2798C12.3201 27.2265 11.7067 27.0398 11.3067 26.8798C10.7734 26.6665 10.4001 26.4265 10.0001 26.0265C9.60008 25.6265 9.36008 25.2532 9.14675 24.7198C8.98675 24.3198 8.80008 23.7332 8.74675 22.6132C8.69341 21.4132 8.69341 21.0665 8.69341 18.0265C8.69341 14.9865 8.69341 14.6398 8.74675 13.4398C8.80008 12.3465 8.98675 11.7332 9.14675 11.3332C9.36008 10.7998 9.60008 10.4265 10.0001 10.0265C10.4001 9.6265 10.7734 9.3865 11.3067 9.17317C11.7067 9.01317 12.2934 8.8265 13.4134 8.77317C14.6134 8.71984 14.9867 8.71984 18.0001 8.71984ZM18.0001 6.6665C14.9334 6.6665 14.5334 6.6665 13.3334 6.7465C12.1334 6.79984 11.3067 6.9865 10.5867 7.27984C9.84008 7.57317 9.20008 7.9465 8.58675 8.5865C7.94675 9.2265 7.57341 9.83984 7.28008 10.5865C6.98675 11.3065 6.80008 12.1332 6.74675 13.3332C6.66675 14.5332 6.66675 14.9332 6.66675 17.9998C6.66675 21.0665 6.66675 21.4665 6.74675 22.6665C6.80008 23.8665 6.98675 24.6932 7.28008 25.4132C7.57341 26.1598 7.94675 26.7998 8.58675 27.4132C9.22675 28.0532 9.84008 28.4265 10.5867 28.7198C11.3067 29.0132 12.1334 29.1998 13.3334 29.2532C14.5334 29.3065 14.9334 29.3332 18.0001 29.3332C21.0667 29.3332 21.4667 29.3332 22.6667 29.2532C23.8667 29.1998 24.6934 29.0132 25.4134 28.7198C26.1601 28.4265 26.8001 28.0532 27.4134 27.4132C28.0534 26.7732 28.4267 26.1598 28.7201 25.4132C29.0134 24.6932 29.2001 23.8665 29.2534 22.6665C29.3067 21.4665 29.3334 21.0665 29.3334 17.9998C29.3334 14.9332 29.3334 14.5332 29.2534 13.3332C29.2001 12.1332 29.0134 11.3065 28.7201 10.5865C28.4267 9.83984 28.0534 9.19984 27.4134 8.5865C26.7734 7.9465 26.1601 7.57317 25.4134 7.27984C24.6934 6.9865 23.8667 6.79984 22.6667 6.7465C21.4667 6.6665 21.0667 6.6665 18.0001 6.6665Z" fill="white"/>
<path d="M18.0001 12.1865C14.7734 12.1865 12.1868 14.7999 12.1868 17.9999C12.1868 21.1999 14.8001 23.8132 18.0001 23.8132C21.2268 23.8132 23.8134 21.1999 23.8134 17.9999C23.8134 14.7999 21.2268 12.1865 18.0001 12.1865ZM18.0001 21.7865C15.9201 21.7865 14.2134 20.1065 14.2134 17.9999C14.2134 15.8932 15.8934 14.2132 18.0001 14.2132C20.1068 14.2132 21.7868 15.8932 21.7868 17.9999C21.7868 20.1065 20.0801 21.7865 18.0001 21.7865Z" fill="white"/>
<path d="M24.0534 13.3064C24.8045 13.3064 25.4134 12.6975 25.4134 11.9464C25.4134 11.1953 24.8045 10.5864 24.0534 10.5864C23.3023 10.5864 22.6934 11.1953 22.6934 11.9464C22.6934 12.6975 23.3023 13.3064 24.0534 13.3064Z" fill="white"/>
</g>
<defs>
<clipPath id="clip0_37_302">
<rect width="36" height="36" fill="white"/>
</clipPath>
</defs>
</svg>
