<svg width="36" height="36" viewBox="0 0 36 36" fill="none" xmlns="http://www.w3.org/2000/svg">
<g clip-path="url(#clip0_285_2)">
<path d="M18 36C27.9411 36 36 27.9411 36 18C36 8.05888 27.9411 0 18 0C8.05888 0 0 8.05888 0 18C0 27.9411 8.05888 36 18 36Z" fill="#8F519F"/>
<g clip-path="url(#clip1_285_2)">
<path d="M13.2941 13.3335H9.31348V26.0002H13.2941V13.3335Z" fill="white"/>
<path d="M11.3036 11.5843C10.032 11.5843 9 10.6085 9 9.28295C9 7.95736 10.032 7 11.3036 7C12.5752 7 13.6072 7.97578 13.6072 9.28295C13.6072 10.5901 12.5752 11.5843 11.3036 11.5843Z" fill="white"/>
<path d="M27.9998 25.9999H24.0192V19.0958C24.0192 17.0522 23.1531 16.4262 22.0289 16.4262C20.8495 16.4262 19.6885 17.3099 19.6885 19.1326V25.9999H15.6895V13.3332H19.5226V15.1006H19.5779C19.9649 14.3274 21.3102 12.9834 23.3742 12.9834C25.6041 12.9834 27.9998 14.309 27.9998 18.1753V25.9999Z" fill="white"/>
</g>
</g>
<defs>
<clipPath id="clip0_285_2">
<rect width="36" height="36" fill="white"/>
</clipPath>
<clipPath id="clip1_285_2">
<rect width="19" height="19" fill="white" transform="translate(9 7)"/>
</clipPath>
</defs>
</svg>
