<svg width="77" height="87" viewBox="0 0 77 87" fill="none" xmlns="http://www.w3.org/2000/svg">
<g clipPath="url(#clip0_37_139)">
<path d="M0.530762 5.82733C11.873 5.14444 23.0333 3.61173 34.0117 1.24438L36.362 12.8535C25.0349 14.8263 13.2226 15.9948 0.925011 16.3438L0.530762 5.82733ZM16.3462 42.0963C15.8307 30.7452 14.4508 19.561 12.2369 8.5437L23.8673 6.35846C25.6718 17.7096 26.6726 29.5463 26.8545 41.8687L16.3462 42.0963Z" fill="#8F519F"/>
<path d="M48.69 31.428C47.2495 34.2355 45.8544 37.0581 44.4745 39.8959L34.8154 35.753C40.4259 23.0513 46.5823 11.1387 53.2997 0L63.9293 1.51753C67.0833 14.1282 69.4791 27.3459 71.1319 41.1402L60.6843 42.2632C60.2445 39.2585 59.7593 36.2538 59.2134 33.2794C55.6652 32.7938 52.1624 32.1868 48.69 31.428ZM57.4393 24.326C56.9844 22.247 56.5143 20.168 56.0291 18.089C54.9373 19.9555 53.8607 21.8524 52.8144 23.7493C54.3308 23.9618 55.8623 24.1591 57.4393 24.326Z" fill="#64C5BC"/>
<path d="M37.6358 67.3784C36.9838 80.9451 26.4452 87.1063 6.00488 85.8619L7.12698 47.2711C28.1132 47.1042 38.2879 53.8117 37.6358 67.3784ZM17.7111 58.5919L17.2258 74.5108C23.731 74.7839 27.1124 72.2648 27.3854 66.9231C27.6583 61.5814 24.4285 58.8043 17.7111 58.5919Z" fill="#F05E46"/>
<path d="M52.9054 77.7582C52.1928 80.8236 51.5104 83.9042 50.8584 87L40.4866 85.3155C42.8521 71.6274 45.9606 58.5614 49.7969 46.148L60.472 45.0554C66.5829 56.5431 72.0872 68.7744 77.0153 81.7797L67.1439 85.3914C65.9915 82.5839 64.7936 79.7917 63.5502 77.0298C59.9868 77.394 56.4537 77.6368 52.9054 77.7582ZM59.6835 68.7441C58.7282 66.832 57.7729 64.9199 56.8176 63.0382C56.2111 65.1172 55.6197 67.2114 55.0587 69.3056C56.5598 69.1538 58.1065 68.9565 59.6835 68.7441Z" fill="#FDBF4C"/>
<path fillRule="evenodd" clipRule="evenodd" d="M16.3157 9.22663C15.8304 9.22663 15.421 8.80173 15.4362 8.30094C15.4514 7.84568 15.8153 7.45112 16.2702 7.42077C16.7554 7.39042 17.1952 7.80016 17.1952 8.30094C17.2103 8.80173 16.8009 9.22663 16.3157 9.22663Z" fill="#673D17"/>
<path fillRule="evenodd" clipRule="evenodd" d="M21.5016 8.33129C21.5016 8.84725 21.0922 9.22663 20.5767 9.19628C20.0914 9.16593 19.7427 8.8169 19.7427 8.31612C19.7427 7.83051 20.0914 7.4663 20.5767 7.45112C21.1225 7.43595 21.5168 7.81533 21.5016 8.33129Z" fill="#673D17"/>
<path d="M17.0435 9.95516C17.0435 10.7746 17.6348 11.3665 18.4537 11.3816C19.2725 11.3816 19.8335 10.6987 19.7577 9.90963C19.7274 9.54542 19.1663 9.54542 19.1967 9.90963C19.3028 11.0781 17.6045 11.0933 17.6045 9.95516C17.6045 9.59095 17.0435 9.59095 17.0435 9.95516Z" fill="#673D17"/>
<path fillRule="evenodd" clipRule="evenodd" d="M12.5855 10.6835C12.6158 9.98543 13.2527 9.54534 14.1928 9.57569C14.9813 9.60605 15.5727 10.0461 15.5424 10.6076C15.5424 11.5637 14.6174 11.8065 13.8289 11.7761C13.0707 11.7609 12.5552 11.3057 12.5855 10.6835Z" fill="#F7A69D"/>
<path fillRule="evenodd" clipRule="evenodd" d="M21.3499 10.6835C21.3802 9.98543 22.0171 9.54534 22.9572 9.57569C23.7457 9.60605 24.3371 10.0461 24.3068 10.6076C24.3068 11.5637 23.3818 11.8065 22.5933 11.7761C21.8351 11.7609 21.3196 11.3057 21.3499 10.6835Z" fill="#F7A69D"/>
<path fillRule="evenodd" clipRule="evenodd" d="M54.3154 9.75778C53.8301 9.66673 53.5117 9.18112 53.6027 8.69551C53.6937 8.24025 54.1334 7.92157 54.5731 7.98227C55.0584 8.04297 55.4071 8.5134 55.3313 8.99901C55.2707 9.4998 54.7854 9.84883 54.3154 9.75778Z" fill="#673D17"/>
<path fillRule="evenodd" clipRule="evenodd" d="M59.5771 9.78823C59.4861 10.3042 59.0312 10.5925 58.5156 10.4711C58.0304 10.3649 57.7574 9.93998 57.8484 9.46955C57.9394 8.98394 58.3488 8.69561 58.834 8.75631C59.3496 8.83219 59.668 9.27227 59.5771 9.78823Z" fill="#673D17"/>
<path d="M54.9067 10.6076C54.7703 11.4119 55.2403 12.11 56.044 12.2465C56.8477 12.3983 57.5148 11.8216 57.5907 11.0325C57.621 10.6683 57.0599 10.5772 57.0296 10.9415C56.9235 12.11 55.2555 11.8216 55.4526 10.7138C55.5133 10.3496 54.9674 10.2586 54.9067 10.6076Z" fill="#673D17"/>
<path fillRule="evenodd" clipRule="evenodd" d="M50.3881 10.5468C50.5397 9.8639 51.2524 9.54522 52.1622 9.74249C52.9356 9.90942 53.436 10.4557 53.3147 11.002C53.1479 11.9429 52.1926 12.0188 51.4344 11.867C50.6762 11.7001 50.2516 11.1538 50.3881 10.5468Z" fill="#F7A69D"/>
<path fillRule="evenodd" clipRule="evenodd" d="M59.016 12.0795C59.1677 11.3966 59.8804 11.0779 60.7902 11.2752C61.5635 11.4421 62.0639 11.9884 61.9426 12.5348C61.7758 13.4756 60.8205 13.5515 60.0623 13.3998C59.3041 13.2176 58.8796 12.6713 59.016 12.0795Z" fill="#F7A69D"/>
<path fillRule="evenodd" clipRule="evenodd" d="M25.7173 56.0424C25.2927 55.7996 25.141 55.2381 25.3988 54.8132C25.6263 54.4186 26.157 54.2668 26.5664 54.4641C27.0061 54.6766 27.1729 55.2532 26.9455 55.6781C26.7029 56.1182 26.1418 56.2852 25.7173 56.0424Z" fill="#673D17"/>
<path fillRule="evenodd" clipRule="evenodd" d="M30.6756 57.8179C30.4178 58.2732 29.8871 58.3946 29.4322 58.1214C29.0227 57.8635 28.9014 57.3778 29.144 56.9529C29.3867 56.528 29.8719 56.3914 30.2965 56.6039C30.7817 56.8315 30.9333 57.3627 30.6756 57.8179Z" fill="#673D17"/>
<path d="M25.9901 57.0439C25.5807 57.7571 25.8081 58.5614 26.5208 58.9712C27.2335 59.3809 28.0523 59.0622 28.3708 58.3338C28.5224 58 28.022 57.7268 27.8855 58.0607C27.4003 59.1229 25.9143 58.3035 26.4753 57.3171C26.6573 56.9984 26.1721 56.7252 25.9901 57.0439Z" fill="#673D17"/>
<path fillRule="evenodd" clipRule="evenodd" d="M21.7595 55.4809C22.1234 54.8891 22.8968 54.8284 23.7004 55.2988C24.3676 55.7086 24.6709 56.3915 24.3676 56.8619C23.8975 57.6965 22.9726 57.4537 22.3054 57.044C21.6534 56.6646 21.4259 55.9969 21.7595 55.4809Z" fill="#F7A69D"/>
<path fillRule="evenodd" clipRule="evenodd" d="M29.3867 59.7754C29.7506 59.1835 30.524 59.1228 31.3276 59.5933C31.9948 60.003 32.2981 60.6859 31.9948 61.1563C31.5247 61.991 30.5998 61.7482 29.9326 61.3384C29.2805 60.959 29.0531 60.3065 29.3867 59.7754Z" fill="#F7A69D"/>
<path fillRule="evenodd" clipRule="evenodd" d="M53.982 56.3004C53.4967 56.3914 53.0267 56.0576 52.9357 55.5568C52.8599 55.1015 53.1632 54.6463 53.6029 54.54C54.073 54.4186 54.5734 54.7373 54.6795 55.2229C54.7856 55.7237 54.452 56.2093 53.982 56.3004Z" fill="#673D17"/>
<path fillRule="evenodd" clipRule="evenodd" d="M58.9101 54.4642C59.001 54.9802 58.6826 55.4203 58.1519 55.481C57.6667 55.5417 57.2572 55.2534 57.1814 54.7829C57.0904 54.2973 57.3634 53.8876 57.8486 53.7662C58.3642 53.6448 58.8191 53.9483 58.9101 54.4642Z" fill="#673D17"/>
<path d="M54.8311 56.8923C54.9827 57.6966 55.6803 58.167 56.4839 58.0304C57.2876 57.8787 57.7122 57.1047 57.4999 56.346C57.4089 55.9969 56.8478 56.1032 56.954 56.4522C57.2724 57.5752 55.6044 57.909 55.3922 56.8012C55.3163 56.4219 54.7705 56.5281 54.8311 56.8923Z" fill="#673D17"/>
<path fillRule="evenodd" clipRule="evenodd" d="M50.5853 58.4249C50.4943 57.742 51.0402 57.1805 51.95 57.0439C52.7233 56.9225 53.3905 57.2564 53.4663 57.8027C53.6483 58.7284 52.784 59.1533 52.0107 59.2747C51.2676 59.3961 50.6763 59.0471 50.5853 58.4249Z" fill="#F7A69D"/>
<path fillRule="evenodd" clipRule="evenodd" d="M59.1981 56.786C59.1071 56.1031 59.653 55.5416 60.5628 55.405C61.3361 55.2836 62.0033 55.6175 62.0791 56.1638C62.2611 57.0895 61.3968 57.5144 60.6234 57.6358C59.8804 57.7572 59.2739 57.4082 59.1981 56.786Z" fill="#F7A69D"/>
<path d="M15.4515 27.6343C14.1777 27.6798 12.4794 27.8619 11.4331 26.9514C10.4475 26.0864 10.1442 24.2957 9.78033 23.112C9.52255 22.3077 8.27914 22.7023 8.53692 23.5066C9.02215 25.0545 9.43157 26.921 10.6901 28.044C11.9335 29.1518 13.9654 29.0001 15.4969 28.9545C16.3461 28.9242 16.3006 27.6039 15.4515 27.6343Z" fill="#8F519F"/>
<path fillRule="evenodd" clipRule="evenodd" d="M9.32551 23.3397C8.35505 23.2942 8.08211 23.1121 7.68786 22.2774C7.43008 21.6704 7.15713 20.7902 7.91531 20.3501C9.35584 19.4852 10.205 22.1712 9.46198 23.0969C9.71976 22.3988 10.4173 22.1864 10.9177 21.8222" fill="#8F519F"/>
<path d="M9.32543 22.7022C9.23445 22.7022 9.14347 22.687 9.05249 22.687C9.007 22.687 8.97667 22.6718 8.93118 22.6718C9.08281 22.6718 9.03732 22.687 8.99183 22.6718C8.93118 22.6567 8.85536 22.6415 8.79471 22.6263C8.76438 22.6112 8.73405 22.6111 8.70373 22.596C8.59758 22.5656 8.8402 22.6719 8.74922 22.6111C8.70373 22.5808 8.64307 22.5504 8.59758 22.5201C8.5066 22.4594 8.71889 22.6415 8.64307 22.5504C8.62791 22.5353 8.61275 22.5201 8.59758 22.5049C8.58242 22.4897 8.55209 22.4594 8.53693 22.4442C8.49144 22.3987 8.47628 22.3228 8.55209 22.4746C8.52177 22.4139 8.47627 22.3532 8.43078 22.3076C8.38529 22.2469 8.35497 22.1711 8.30948 22.0952C8.27915 22.0345 8.20333 21.822 8.26399 22.0193C8.2185 21.8676 8.14268 21.731 8.11235 21.5792C8.09719 21.5034 8.08203 21.4275 8.0517 21.3364C8.02137 21.1998 8.06686 21.4882 8.0517 21.3516C8.0517 21.3212 8.0517 21.3061 8.0517 21.2757C8.0517 21.2302 8.0517 21.1998 8.0517 21.1543C8.0517 21.0633 8.09719 21.0633 8.03654 21.1695C8.0517 21.1391 8.0517 21.0936 8.06686 21.0633C8.06686 21.0481 8.06686 21.0329 8.08203 21.0329C8.11235 20.9722 8.09719 20.9874 8.0517 21.0784C8.06686 21.0633 8.09719 21.0026 8.11235 20.9722C8.00621 21.0633 8.17301 20.8508 8.11235 20.9722C8.14268 20.957 8.17301 20.9267 8.18817 20.8963C8.06686 20.9722 8.23366 20.8356 8.18817 20.8963C8.24882 20.866 8.30948 20.8356 8.38529 20.7901C8.23366 20.8812 8.27915 20.8356 8.32464 20.8205C8.35497 20.8053 8.38529 20.8053 8.43078 20.7901C8.52177 20.7598 8.5066 20.8205 8.37013 20.7901C8.40046 20.7901 8.43078 20.7901 8.44595 20.7901C8.46111 20.7901 8.49144 20.7901 8.5066 20.7901C8.58242 20.7901 8.55209 20.8356 8.43078 20.7749C8.46111 20.7901 8.53693 20.8053 8.58242 20.8205C8.44595 20.8053 8.44595 20.7446 8.5066 20.7901C8.53693 20.8053 8.56726 20.8205 8.58242 20.8356C8.59758 20.8508 8.62791 20.866 8.64307 20.8812C8.52177 20.8356 8.53693 20.7901 8.59758 20.8508C8.62791 20.8812 8.65824 20.9115 8.68856 20.9419C8.70373 20.957 8.71889 20.9874 8.74922 21.0026C8.82503 21.0784 8.65824 20.866 8.71889 20.957C8.74922 21.0026 8.77954 21.0481 8.80987 21.1088C8.8402 21.1543 8.87052 21.215 8.90085 21.2757C8.91602 21.2909 8.91602 21.3061 8.93118 21.3364C8.99183 21.4427 8.87052 21.1847 8.91602 21.2909C8.96151 21.4123 8.99183 21.5337 9.02216 21.6551C9.03732 21.7158 9.05249 21.7917 9.06765 21.8524C9.08281 21.9434 9.05249 21.6703 9.05249 21.7917C9.05249 21.8372 9.06765 21.8827 9.06765 21.9131C9.08281 22.0497 9.06765 22.1862 9.06765 22.3076C9.06765 22.429 9.09798 22.1407 9.08281 22.2469C9.08281 22.2773 9.06765 22.3076 9.06765 22.338C9.05249 22.3987 9.03732 22.4594 9.02216 22.5201C9.02216 22.5353 9.007 22.5504 9.007 22.5656C9.02216 22.4139 9.06765 22.4442 9.02216 22.5353C8.99183 22.596 8.85536 22.7629 9.007 22.5808C9.37092 22.7933 9.73484 23.0057 10.0988 23.2182C10.0381 23.3699 10.0988 23.2333 10.1139 23.203C10.1291 23.1726 10.1443 23.1423 10.1746 23.1119C10.2352 23.0209 10.2201 23.0816 10.1594 23.1119C10.1897 23.0968 10.2201 23.0361 10.2504 23.0209C10.2959 22.9754 10.3565 22.9298 10.402 22.8691C10.2807 22.945 10.5082 22.7781 10.402 22.8691C10.4324 22.854 10.4627 22.8236 10.493 22.8084C10.7356 22.6415 11.0086 22.5049 11.2512 22.338C11.5241 22.1407 11.6909 21.7613 11.4786 21.4427C11.2967 21.1695 10.8873 21.0026 10.584 21.215C10.3111 21.4123 9.99262 21.5641 9.71968 21.7613C9.31026 22.0648 9.02216 22.3987 8.8402 22.8843C8.73405 23.1423 8.90085 23.4913 9.14347 23.6127C9.37092 23.7341 9.75001 23.7341 9.93197 23.5065C10.3869 22.9147 10.4627 22.2014 10.3414 21.4882C10.2352 20.8205 9.90164 20.1528 9.34059 19.7582C8.68856 19.2878 7.73327 19.4699 7.21771 20.0465C6.53535 20.7901 6.8083 21.8676 7.20255 22.6718C7.38451 23.0512 7.64229 23.4003 8.00621 23.6279C8.40046 23.8707 8.88569 23.9162 9.34059 23.9314C9.67419 23.9466 10.0078 23.6279 9.99262 23.2789C9.96229 22.9754 9.68935 22.7174 9.32543 22.7022Z" fill="#8F519F"/>
<path d="M6.8084 65.9064C5.565 65.618 3.86669 65.3601 3.10852 64.2067C2.38068 63.1141 2.54747 61.3083 2.50198 60.0639C2.47166 59.2141 1.15244 59.2748 1.19793 60.1246C1.27374 61.7483 1.18276 63.6604 2.10773 65.0717C3.0327 66.4679 5.01912 66.8472 6.5203 67.1963C7.33912 67.3784 7.62723 66.1036 6.8084 65.9064Z" fill="#F16244"/>
<path fillRule="evenodd" clipRule="evenodd" d="M2.00153 60.1851C1.07656 59.8968 0.864275 59.6388 0.697477 58.7283C0.606497 58.0758 0.561006 57.1653 1.41016 56.9224C3.03265 56.4672 3.15396 59.2746 2.19866 59.9727C2.6384 59.3657 3.35108 59.3353 3.92729 59.1077" fill="#F16244"/>
<path d="M2.1683 59.563C2.07731 59.5326 2.0015 59.5023 1.91052 59.4719C1.88019 59.4568 1.8347 59.4416 1.78921 59.4264C1.94084 59.4568 1.89535 59.4719 1.84986 59.4416C1.78921 59.4112 1.72856 59.3809 1.6679 59.3505C1.63757 59.3354 1.62241 59.3202 1.59208 59.305C1.5011 59.2595 1.69823 59.4112 1.62241 59.3354C1.57692 59.2898 1.54659 59.2595 1.5011 59.214C1.42529 59.1381 1.57692 59.3505 1.53143 59.2595C1.51627 59.2443 1.51627 59.2291 1.5011 59.214C1.48594 59.1836 1.47078 59.1684 1.45561 59.1381C1.42529 59.0774 1.42529 59.0015 1.47078 59.1684C1.45561 59.1077 1.42529 59.0318 1.41012 58.9711C1.39496 58.8953 1.36463 58.8194 1.34947 58.7435C1.33431 58.6828 1.31914 58.4552 1.33431 58.6676C1.33431 58.5159 1.30398 58.349 1.30398 58.1972C1.30398 58.1213 1.30398 58.0303 1.31914 57.9544C1.31914 57.8178 1.28882 58.1062 1.31914 57.9696C1.31914 57.9392 1.33431 57.9241 1.33431 57.8937C1.34947 57.8634 1.34947 57.8178 1.36463 57.7875C1.39496 57.6964 1.44045 57.7116 1.34947 57.8026C1.36463 57.7723 1.3798 57.7268 1.39496 57.6964C1.39496 57.6812 1.41012 57.6812 1.41012 57.6661C1.45561 57.6054 1.44045 57.6205 1.3798 57.7116C1.39496 57.6964 1.44045 57.6509 1.45561 57.6357C1.33431 57.6964 1.54659 57.5447 1.45561 57.6357C1.48594 57.6205 1.51627 57.6054 1.54659 57.5902C1.41012 57.6357 1.60725 57.5447 1.54659 57.5902C1.62241 57.575 1.68307 57.5598 1.75888 57.5447C1.59208 57.5902 1.63757 57.5598 1.69823 57.5598C1.72856 57.5598 1.77405 57.5598 1.80437 57.5598C1.89535 57.5598 1.88019 57.6054 1.74372 57.5447C1.75888 57.5598 1.80437 57.5598 1.81954 57.5598C1.8347 57.5598 1.86503 57.575 1.88019 57.575C1.95601 57.5902 1.91052 57.6357 1.80437 57.5447C1.8347 57.575 1.89535 57.6054 1.94084 57.6205C1.80437 57.575 1.81954 57.5143 1.88019 57.575C1.89535 57.5902 1.92568 57.6205 1.94084 57.6357C1.95601 57.6509 1.97117 57.6812 1.98633 57.6964C1.88019 57.6205 1.91052 57.575 1.95601 57.6509C1.98633 57.6964 2.0015 57.7268 2.03182 57.7723C2.04699 57.8027 2.06215 57.8178 2.06215 57.8482C2.12281 57.9544 2.0015 57.6964 2.04699 57.8026C2.06215 57.8633 2.09248 57.9089 2.10764 57.9696C2.1228 58.0303 2.13797 58.091 2.15313 58.1517C2.15313 58.1669 2.15313 58.1972 2.1683 58.2124C2.19862 58.3338 2.15313 58.0455 2.1683 58.1669C2.1683 58.2883 2.18346 58.4248 2.18346 58.5462C2.18346 58.6221 2.1683 58.6828 2.1683 58.7587C2.1683 58.8497 2.19862 58.5766 2.18346 58.698C2.1683 58.7435 2.1683 58.789 2.1683 58.8194C2.13797 58.956 2.10764 59.0774 2.06215 59.1988C2.03182 59.3202 2.13797 59.047 2.07731 59.1532C2.06215 59.1836 2.04699 59.1988 2.04699 59.2291C2.01666 59.2898 1.98633 59.3354 1.95601 59.3961C1.94084 59.4112 1.92568 59.4264 1.92568 59.4416C1.98633 59.2898 2.0015 59.3505 1.94084 59.4112C1.89535 59.4568 1.72856 59.5933 1.92568 59.4416C2.21379 59.7451 2.51705 60.0334 2.80516 60.3369C2.71418 60.4735 2.80516 60.3521 2.82032 60.3217C2.85065 60.2914 2.86581 60.261 2.89614 60.2459C2.97196 60.1852 2.94163 60.2307 2.88098 60.2459C2.9113 60.2307 2.95679 60.1852 2.98712 60.17C3.04778 60.1396 3.10843 60.1093 3.16908 60.0638C3.03261 60.1093 3.30555 60.0031 3.16908 60.0638C3.19941 60.0486 3.22974 60.0334 3.27523 60.0334C3.56333 59.9424 3.85144 59.8817 4.13954 59.7754C4.45798 59.654 4.71575 59.3354 4.59445 58.9711C4.4883 58.6525 4.13954 58.3945 3.79078 58.5159C3.47235 58.6373 3.12359 58.698 2.80516 58.8194C2.33509 59.0015 1.97117 59.2595 1.6679 59.6692C1.5011 59.8968 1.57692 60.2762 1.77405 60.4583C1.97117 60.6404 2.33509 60.7315 2.56255 60.5646C3.15392 60.1093 3.4117 59.4416 3.47235 58.7132C3.53301 58.0303 3.38137 57.317 2.95679 56.7859C2.44124 56.1637 1.48594 56.103 0.818748 56.5279C-0.030405 57.0742 -0.0455685 58.182 0.136393 59.0622C0.227374 59.4719 0.363845 59.8817 0.667114 60.2003C0.985546 60.5342 1.44045 60.7011 1.88019 60.8377C2.19862 60.9439 2.60804 60.7163 2.66869 60.3824C2.71418 60.0031 2.51705 59.6692 2.1683 59.563Z" fill="#F16244"/>
<path d="M68.7511 64.6619C69.8732 64.0549 71.4351 63.3416 71.8596 62.0214C72.269 60.777 71.617 59.0774 71.3289 57.8785C71.1318 57.0591 72.4055 56.7556 72.6026 57.575C72.9817 59.1532 73.5731 60.9743 73.0575 62.5829C72.542 64.1763 70.7375 65.0868 69.388 65.8152C68.645 66.2098 68.0081 65.0564 68.7511 64.6619Z" fill="#FDBF4C"/>
<path fillRule="evenodd" clipRule="evenodd" d="M71.8294 57.8329C72.6483 57.3017 72.7847 56.9982 72.6937 56.0725C72.6028 55.42 72.3905 54.5247 71.5262 54.5247C69.843 54.5247 70.495 57.2562 71.602 57.6811C71.0258 57.2107 70.3131 57.3776 69.7065 57.3169" fill="#FDBF4C"/>
<path d="M71.4957 57.2715C71.5716 57.226 71.6474 57.1653 71.7232 57.1198C71.7535 57.0894 71.7838 57.0591 71.8142 57.0439C71.6777 57.1198 71.7232 57.1198 71.7687 57.0742C71.8142 57.0287 71.8748 56.9832 71.9203 56.9377C71.9355 56.9225 71.9658 56.8921 71.981 56.8618C72.0568 56.7859 71.9052 56.9984 71.9506 56.9073C71.981 56.8618 72.0113 56.8011 72.0416 56.7555C72.1023 56.6645 71.9961 56.9073 72.0265 56.8011C72.0265 56.7859 72.0416 56.7707 72.0416 56.7404C72.0568 56.71 72.0568 56.6797 72.0568 56.6493C72.072 56.5886 72.0416 56.5127 72.0568 56.6948C72.0568 56.619 72.072 56.5583 72.072 56.4824C72.072 56.4065 72.072 56.3306 72.0568 56.2396C72.0568 56.1789 72.0113 55.9513 72.0568 56.1637C72.0265 56.012 72.0113 55.8602 71.9658 55.6933C71.9506 55.6174 71.9203 55.5415 71.89 55.4656C71.8445 55.3291 71.9658 55.6022 71.89 55.4808C71.8748 55.4505 71.8597 55.4353 71.8597 55.4049C71.8445 55.3746 71.8293 55.3442 71.799 55.2987C71.7535 55.2228 71.708 55.2532 71.8142 55.3139C71.7838 55.2987 71.7535 55.2532 71.7384 55.238C71.7232 55.2228 71.7232 55.2228 71.708 55.2077C71.6625 55.1621 71.6777 55.1773 71.7535 55.238C71.7384 55.238 71.6777 55.1925 71.6474 55.1773C71.5412 55.1166 71.7838 55.2077 71.6474 55.1773C71.617 55.1773 71.5716 55.1621 71.5412 55.147C71.4654 55.1166 71.6929 55.147 71.5564 55.147C71.4806 55.147 71.4048 55.1621 71.3441 55.1621C71.5109 55.1621 71.4654 55.147 71.4048 55.1621C71.3744 55.1773 71.3441 55.1773 71.2986 55.1925C71.2076 55.2077 71.238 55.2532 71.3593 55.1621C71.3441 55.1773 71.3138 55.1925 71.2835 55.1925C71.2683 55.2077 71.2531 55.2228 71.2228 55.2228C71.1621 55.2684 71.2076 55.2835 71.2835 55.1773C71.2683 55.2077 71.2076 55.2684 71.1773 55.2835C71.2986 55.2077 71.2531 55.1621 71.2228 55.2228C71.2076 55.2532 71.1925 55.2684 71.1773 55.2987C71.1621 55.3139 71.1621 55.3442 71.147 55.3746C71.238 55.2684 71.1925 55.238 71.1773 55.3139C71.1621 55.3594 71.147 55.4049 71.147 55.4505C71.147 55.4808 71.1318 55.5112 71.1318 55.5263C71.1015 55.6326 71.147 55.3594 71.1318 55.4808C71.1318 55.5415 71.1318 55.6022 71.1318 55.6629C71.1318 55.7236 71.1318 55.7843 71.147 55.845C71.147 55.8602 71.147 55.8906 71.147 55.9057C71.1621 56.0271 71.1167 55.7388 71.147 55.8602C71.1773 55.9816 71.1925 56.103 71.238 56.2244C71.2531 56.2851 71.2835 56.361 71.3138 56.4217C71.3441 56.4976 71.238 56.2548 71.2835 56.361C71.2986 56.3913 71.3138 56.4369 71.3441 56.4824C71.4048 56.6038 71.4806 56.71 71.5564 56.8314C71.617 56.9377 71.4351 56.6948 71.5261 56.7859C71.5412 56.8011 71.5564 56.8314 71.5867 56.8466C71.6322 56.8921 71.6777 56.9377 71.7232 56.9832C71.7384 56.9984 71.7535 56.9984 71.7687 57.0135C71.6777 56.8921 71.6625 56.9377 71.7384 56.9832C71.799 57.0135 71.9961 57.1046 71.7687 57.0135C71.5716 57.3777 71.3593 57.7419 71.1621 58.1061C71.2986 58.2124 71.1773 58.1213 71.147 58.091C71.1167 58.0758 71.0863 58.0606 71.0408 58.0303C70.9499 57.9847 70.9953 58.0303 71.056 58.0303C71.0257 58.0303 70.965 57.9999 70.9347 57.9847C70.8589 57.9696 70.7982 57.9544 70.7224 57.9392C70.5859 57.9089 70.8589 57.9544 70.7224 57.9392C70.6921 57.9392 70.6466 57.9392 70.6163 57.9392C70.313 57.924 70.0097 57.9392 69.7216 57.924C69.388 57.8937 69.0544 57.6509 69.0696 57.2715C69.0848 56.9377 69.3577 56.5886 69.7216 56.619C70.0704 56.6493 70.404 56.619 70.7527 56.6493C71.2531 56.6948 71.6777 56.8466 72.0871 57.1653C72.2994 57.3322 72.3449 57.7268 72.2084 57.9544C72.072 58.182 71.7535 58.3793 71.4806 58.2731C70.7831 57.9999 70.3585 57.4233 70.1007 56.7404C69.8581 56.103 69.8126 55.3746 70.0855 54.7372C70.404 53.9936 71.3138 53.675 72.072 53.9026C73.0424 54.1909 73.3457 55.2532 73.4215 56.1637C73.4518 56.5886 73.4215 57.0135 73.2244 57.3929C73.0121 57.8026 72.6178 58.091 72.2236 58.3338C71.9355 58.5159 71.4957 58.4097 71.3289 58.1061C71.1015 57.8482 71.1925 57.484 71.4957 57.2715Z" fill="#FDBF4C"/>
<path d="M67.1134 22.9148C68.3872 22.9603 70.0855 23.1424 71.1318 22.2319C72.1174 21.3669 72.4206 19.5762 72.7846 18.3926C73.0423 17.5883 74.2857 17.9828 74.028 18.7871C73.5427 20.335 73.1333 22.2016 71.8748 23.3245C70.6314 24.4323 68.5995 24.2806 67.0679 24.235C66.2188 24.2047 66.2643 22.8844 67.1134 22.9148Z" fill="#64C5BC"/>
<path fillRule="evenodd" clipRule="evenodd" d="M73.2242 18.6202C74.1947 18.5747 74.4676 18.3926 74.8619 17.5579C75.1197 16.9509 75.3926 16.0707 74.6344 15.6307C73.1939 14.7657 72.3448 17.4517 73.0878 18.3774C72.83 17.6793 72.1325 17.4669 71.6321 17.1027" fill="#64C5BC"/>
<path d="M73.2244 17.9676C73.3153 17.9676 73.4063 17.9524 73.4973 17.9524C73.5428 17.9524 73.5731 17.9372 73.6186 17.9372C73.467 17.9372 73.5125 17.9524 73.558 17.9372C73.6186 17.9221 73.6944 17.9069 73.7551 17.8917C73.7854 17.8765 73.8157 17.8765 73.8461 17.8614C73.9522 17.831 73.7096 17.9372 73.8006 17.8765C73.8461 17.8462 73.9067 17.8158 73.9522 17.7855C74.0432 17.7248 73.8309 17.9069 73.9067 17.8158C73.9219 17.8007 73.937 17.7855 73.9522 17.7703C73.9674 17.7551 73.9977 17.7248 74.0129 17.7096C74.0584 17.6641 74.0735 17.5882 73.9977 17.74C74.028 17.6793 74.0735 17.6186 74.119 17.573C74.1645 17.5123 74.1948 17.4364 74.2403 17.3606C74.2706 17.2999 74.3465 17.0874 74.2858 17.2847C74.3313 17.1329 74.4071 16.9964 74.4374 16.8446C74.4526 16.7687 74.4678 16.6929 74.4981 16.6018C74.5284 16.4652 74.4829 16.7536 74.4981 16.617C74.4981 16.5866 74.4981 16.5715 74.4981 16.5411C74.4981 16.4956 74.4981 16.4652 74.4981 16.4197C74.4981 16.3286 74.4526 16.3287 74.5133 16.4349C74.4981 16.4045 74.4981 16.359 74.4829 16.3286C74.4829 16.3135 74.4829 16.2983 74.4678 16.2983C74.4374 16.2376 74.4526 16.2528 74.4981 16.3438C74.4829 16.3286 74.4526 16.2679 74.4374 16.2376C74.3768 16.1162 74.5436 16.3286 74.4374 16.2376C74.4071 16.2224 74.3768 16.1921 74.3616 16.1617C74.3161 16.101 74.4829 16.2376 74.3616 16.1617C74.301 16.1314 74.2403 16.101 74.1645 16.0555C74.3161 16.1465 74.2706 16.101 74.2251 16.0858C74.1948 16.0707 74.1645 16.0707 74.119 16.0555C74.028 16.0251 74.0432 16.0858 74.1797 16.0555C74.1493 16.0555 74.119 16.0555 74.1038 16.0555C74.0887 16.0555 74.0583 16.0555 74.0432 16.0555C73.9674 16.0555 73.9977 16.101 74.119 16.0403C74.0887 16.0555 74.0129 16.0707 73.9674 16.0858C74.1038 16.0707 74.1038 16.01 74.0432 16.0555C74.0129 16.0707 73.9825 16.0858 73.9674 16.101C73.9522 16.1162 73.9219 16.1314 73.9067 16.1465C74.028 16.101 74.0129 16.0555 73.9522 16.1162C73.9219 16.1465 73.8916 16.1769 73.8612 16.2072C73.8461 16.2224 73.8309 16.2528 73.8006 16.2679C73.7248 16.3438 73.8916 16.1314 73.8309 16.2224C73.8006 16.2679 73.7702 16.3135 73.7399 16.3742C73.7096 16.4197 73.6793 16.4804 73.6489 16.5411C73.6338 16.5563 73.6338 16.5715 73.6186 16.6018C73.558 16.708 73.6793 16.4501 73.6338 16.5563C73.5883 16.6777 73.558 16.7991 73.5276 16.9205C73.5125 16.9812 73.4973 17.0571 73.4821 17.1178C73.467 17.2088 73.4973 16.9357 73.4973 17.0571C73.4973 17.1026 73.4821 17.1481 73.4821 17.1785C73.467 17.315 73.4821 17.4516 73.4821 17.573C73.4821 17.6944 73.4518 17.4061 73.467 17.5123C73.467 17.5427 73.4821 17.573 73.4821 17.6034C73.4973 17.6641 73.5125 17.7248 73.5276 17.7855C73.5276 17.8007 73.5428 17.8158 73.5428 17.831C73.5276 17.6793 73.4821 17.7096 73.5276 17.8007C73.558 17.8614 73.6944 18.0283 73.5428 17.8462C73.1789 18.0586 72.8149 18.2711 72.451 18.4835C72.5117 18.6353 72.451 18.4987 72.4359 18.4684C72.4207 18.438 72.4055 18.4077 72.3752 18.3773C72.3146 18.2863 72.3297 18.347 72.3904 18.3773C72.36 18.3621 72.3297 18.3014 72.2994 18.2863C72.2539 18.2407 72.1932 18.1952 72.1478 18.1345C72.0416 18.0435 72.2691 18.2104 72.1478 18.1345C72.1174 18.1193 72.0871 18.089 72.0568 18.0738C71.8142 17.9069 71.5412 17.7703 71.2986 17.6034C71.0257 17.4061 70.8589 17.0267 71.0712 16.708C71.2531 16.4349 71.6625 16.2679 71.9658 16.4804C72.2387 16.6777 72.5572 16.8294 72.8301 17.0267C73.2395 17.3302 73.5276 17.6641 73.7096 18.1497C73.8157 18.4077 73.6489 18.7567 73.4063 18.8781C73.1789 18.9995 72.7998 18.9995 72.6178 18.7719C72.1629 18.18 72.0871 17.4668 72.2084 16.7536C72.3146 16.0858 72.6481 15.4181 73.2092 15.0236C73.8612 14.5531 74.8165 14.7352 75.3321 15.3119C76.0144 16.0555 75.7415 17.1329 75.3472 17.9372C75.1653 18.3166 74.9075 18.6656 74.5436 18.8933C74.1493 19.1361 73.6641 19.1816 73.2092 19.1968C72.8756 19.212 72.542 18.8933 72.5572 18.5442C72.6027 18.2559 72.8604 17.9828 73.2244 17.9676Z" fill="#64C5BC"/>
</g>
<defs>
<clipPath id="clip0_37_139">
<rect width="77" height="87" fill="white"/>
</clipPath>
</defs>
</svg>
