<svg width="36" height="36" viewBox="0 0 36 36" fill="none" xmlns="http://www.w3.org/2000/svg">
<g clip-path="url(#clip0_37_318)">
<path d="M18 0C8.04142 0 0 8.04142 0 18C0 25.6154 4.73965 32.1391 11.4231 34.7485C11.2633 33.3373 11.1302 31.1272 11.4763 29.5828C11.7959 28.1716 13.5799 20.6361 13.5799 20.6361C13.5799 20.6361 13.0473 19.5444 13.0473 17.9734C13.0473 15.4704 14.4852 13.6065 16.2959 13.6065C17.8402 13.6065 18.5858 14.7515 18.5858 16.1361C18.5858 17.6805 17.6006 19.997 17.0947 22.1272C16.6686 23.9112 18 25.3757 19.7574 25.3757C22.9527 25.3757 25.4024 21.9941 25.4024 17.1479C25.429 12.8609 22.3136 9.85207 17.8935 9.85207C12.7811 9.85207 9.77219 13.6864 9.77219 17.6538C9.77219 19.1982 10.358 20.8491 11.1036 21.7544C11.2633 21.9408 11.2633 22.1006 11.2101 22.2604C11.0769 22.8195 10.7574 24.0444 10.7041 24.3107C10.6243 24.6302 10.4379 24.7101 10.0917 24.5503C7.85503 23.4852 6.44379 20.2367 6.44379 17.574C6.44379 11.9024 10.571 6.68343 18.3195 6.68343C24.5503 6.68343 29.3965 11.1302 29.3965 17.068C29.3965 23.2722 25.4823 28.2515 20.0769 28.2515C18.2663 28.2515 16.5355 27.2929 15.9497 26.1746C15.9497 26.1746 15.0444 29.6095 14.8314 30.4615C14.432 32.0325 13.3402 33.9763 12.5947 35.1746C14.2722 35.6805 16.0562 35.9734 17.9201 35.9734C27.8521 35.9734 35.9201 27.932 35.9201 17.9734C35.9734 8.04142 27.932 0 18 0Z" fill="#FDBF4C"/>
</g>
<defs>
<clipPath id="clip0_37_318">
<rect width="35.9467" height="36" fill="white"/>
</clipPath>
</defs>
</svg>
