<svg width="36" height="36" viewBox="0 0 36 36" fill="none" xmlns="http://www.w3.org/2000/svg">
<g clip-path="url(#clip0_37_314)">
<path d="M18 36C27.9411 36 36 27.9411 36 18C36 8.05888 27.9411 0 18 0C8.05888 0 0 8.05888 0 18C0 27.9411 8.05888 36 18 36Z" fill="#F16244"/>
<path d="M29.4934 12.2134C29.2267 11.1734 28.4001 10.3734 27.3601 10.0801C25.4934 9.6001 18.0001 9.6001 18.0001 9.6001C18.0001 9.6001 10.5067 9.6001 8.61339 10.1068C7.57339 10.3734 6.77339 11.2001 6.48006 12.2401C5.97339 14.1068 5.97339 18.0268 5.97339 18.0268C5.97339 18.0268 5.97339 21.9201 6.48006 23.8134C6.74672 24.8534 7.57339 25.6534 8.61339 25.9468C10.4801 26.4534 18.0001 26.4534 18.0001 26.4534C18.0001 26.4534 25.4934 26.4534 27.3867 25.9468C28.4267 25.6801 29.2267 24.8534 29.5201 23.8134C30.0267 21.9468 30.0267 18.0268 30.0267 18.0268C30.0267 18.0268 30.0001 14.1068 29.4934 12.2134ZM15.6001 21.6001V14.4001L21.8401 18.0001L15.6001 21.6001Z" fill="white"/>
</g>
<defs>
<clipPath id="clip0_37_314">
<rect width="36" height="36" fill="white"/>
</clipPath>
</defs>
</svg>
