<svg width="128" height="128" viewBox="0 0 128 128" fill="none" xmlns="http://www.w3.org/2000/svg">
<g clip-path="url(#clip0_1344_133)">
<path d="M24.2204 107C21.6577 105.97 21 104.984 21 102.23C21 92.0396 21 81.8718 21 71.6817C21 71.3458 21 71.0099 21 70.6515C21.1814 70.6291 21.3175 70.5843 21.4309 70.5619C24.3791 70.5619 27.3274 70.5619 30.2756 70.5396C30.7745 70.5396 30.9333 70.6963 31.024 71.189C31.9085 75.1531 35.401 77.9302 39.4378 77.9302C43.4747 77.9302 46.9445 75.1755 47.8743 71.2114C47.9197 71.0323 47.965 70.8307 48.0331 70.6067C51.2761 70.6067 54.5192 70.6067 57.8983 70.6067C57.8983 70.8979 57.8983 71.2114 57.8983 71.5026C57.8983 74.638 57.8983 77.7734 57.8983 80.9088C57.8983 82.2078 58.2158 82.5213 59.5312 82.6333C62.865 82.9021 65.3597 85.5448 65.3597 88.8145C65.3597 92.0843 62.865 94.727 59.5085 94.9734C58.1932 95.0854 57.8983 95.3989 57.8983 96.6979C57.8983 100.147 57.8757 103.573 57.8757 107.022C46.6724 107 35.4464 107 24.2204 107Z" fill="#FDBF4C"/>
<path d="M60.2793 107C60.2793 103.999 60.302 101.02 60.2793 98.019C60.2793 97.4591 60.3927 97.2128 61.005 97.0784C64.9738 96.2274 67.786 92.7112 67.7406 88.7024C67.6953 84.6935 64.8604 81.2893 60.8463 80.4383C60.6875 80.3935 60.5288 80.3487 60.3247 80.2815C60.3247 77.0789 60.3247 73.8539 60.3247 70.5617C60.6422 70.5617 60.937 70.5617 61.2545 70.5617C64.4295 70.5617 67.6045 70.5617 70.7796 70.5617C72.0496 70.5617 72.4124 70.2482 72.5032 69.0164C72.7526 65.7018 75.406 63.2159 78.6945 63.1935C81.9829 63.1711 84.6816 65.6123 84.9992 68.9268C85.1352 70.3378 85.3847 70.5617 86.8815 70.5617C90.2833 70.5617 93.6851 70.5617 97.223 70.5617C97.223 70.9201 97.223 71.2336 97.223 71.5696C97.223 81.7373 97.1776 91.8826 97.2457 102.05C97.2684 104.469 96.52 106.171 94.1387 107.022C82.8447 107 71.5506 107 60.2793 107Z" fill="#FDBF4C"/>
<path d="M57.921 31.7724C57.921 34.9526 57.9437 38.0432 57.8983 41.1115C57.8983 41.2906 57.5128 41.6042 57.2633 41.649C53.5894 42.5 50.936 45.4339 50.5504 49.1068C50.0969 53.362 52.8637 57.2589 57.0819 58.2891C57.3314 58.3562 57.5808 58.401 57.8757 58.4682C57.8757 61.6932 57.8757 64.8958 57.8757 68.2104C57.5808 68.2104 57.286 68.2104 56.9912 68.2104C53.9522 68.2104 50.936 68.2104 47.897 68.2104C46.0374 68.2104 45.9466 68.3 45.7198 70.0693C45.3343 73.0927 42.885 75.3995 39.8914 75.5563C36.7617 75.7354 34.063 73.7198 33.3599 70.674C33.2692 70.3156 33.2465 69.9573 33.2239 69.599C33.1331 68.5911 32.7476 68.188 31.7044 68.188C28.484 68.188 25.2409 68.188 22.0205 68.188C21.7257 68.188 21.4082 68.188 21.0227 68.188C21.0227 67.8073 21.0227 67.4937 21.0227 67.2026C21 56.9005 21 46.576 21 36.2292C21 33.2953 22.5422 31.75 25.4904 31.75C35.9453 31.75 46.4002 31.75 56.8778 31.75C57.1726 31.7724 57.4901 31.7724 57.921 31.7724Z" fill="#FDBF4C"/>
<path d="M69.0793 21C69.4648 21 69.7823 21 70.0771 21C80.5547 21 91.055 21 101.533 21C104.435 21 106 22.5453 106 25.3896C106 35.7813 106 46.1505 106 56.5422C106 56.8109 106 57.0797 106 57.438C104.708 57.438 103.483 57.438 102.281 57.438C100.444 57.438 98.607 57.438 96.7474 57.438C96.2938 57.438 96.067 57.3708 95.9536 56.8557C95.0464 52.8245 91.5539 50.0474 87.4944 50.0698C83.4349 50.0922 80.0558 52.8245 79.0806 56.8333C79.0352 57.0125 78.9672 57.2141 78.9218 57.4156C75.6561 57.4156 72.413 57.4156 69.0793 57.4156C69.0793 57.0797 69.0793 56.7885 69.0793 56.475C69.0793 53.3396 69.0793 50.2042 69.0793 47.0688C69.0793 45.837 68.7618 45.501 67.4917 45.3891C64.1353 45.0979 61.6406 42.4776 61.6406 39.2302C61.6406 35.9828 64.158 33.3401 67.4917 33.0714C68.7618 32.9594 69.0793 32.6234 69.0793 31.3917C69.0793 28.2563 69.0793 25.1208 69.0793 21.9854C69.0793 21.6719 69.0793 21.3807 69.0793 21Z" fill="#FDBF4C"/>
</g>
<defs>
<clipPath id="clip0_1344_133">
<rect width="85" height="86" fill="white" transform="translate(21 21)"/>
</clipPath>
</defs>
</svg>
