<svg width="128" height="128" viewBox="0 0 128 128" fill="none" xmlns="http://www.w3.org/2000/svg">
<g clip-path="url(#clip0_1344_135)">
<path d="M103.926 97.4879C103.327 91.0489 102.903 84.6098 102.379 78.1707C101.805 70.9519 101.231 63.7583 100.658 56.5395C100.233 51.2071 99.7845 45.8496 99.4103 40.5173C99.1109 36.2162 96.1673 33.3236 91.8766 33.2984C89.4318 33.2733 86.9871 33.2733 84.5424 33.2733H84.5174H83.2452C83.1953 27.8152 81.4241 23.0865 77.6822 19.0872C70.5227 11.3905 58.0496 10.9126 50.3163 18.056C45.9009 22.1558 43.7805 27.2618 43.7056 33.2733H42.159C42.134 33.2733 42.1091 33.2733 42.0841 33.2733C39.814 33.2733 37.519 33.2733 35.2489 33.2984C30.7586 33.3236 27.8649 36.1155 27.5156 40.6179C26.8421 49.4967 26.0937 58.3756 25.3952 67.2545C24.7715 75.3033 24.1479 83.3522 23.5242 91.401C23.3247 93.866 23.0253 96.3309 22.9754 98.821C22.8008 107.398 28.7629 114.491 37.1697 115.824C37.3444 115.849 37.519 115.95 37.7186 116.025C54.8815 116.025 72.0444 116.025 89.2073 116.025C90.6043 115.623 92.0262 115.346 93.3733 114.818C100.333 112.152 104.624 104.933 103.926 97.4879ZM63.4879 19.0118C71.2212 19.0118 77.2831 25.2999 77.2332 33.2733C68.053 33.2733 58.8978 33.2733 49.7176 33.2733C49.6927 25.2999 55.7546 19.0118 63.4879 19.0118ZM76.7343 68.6127C73.0173 72.3856 69.2754 76.1585 65.5335 79.9063C64.2363 81.2142 62.964 82.5221 61.6419 83.8049C60.1701 85.2386 58.5236 85.2386 57.0518 83.8049C54.7318 81.4909 52.4368 79.1768 50.1417 76.8376C48.7946 75.4542 48.7447 73.6936 49.9671 72.4359C51.1895 71.1531 52.9856 71.2035 54.3826 72.5868C56.029 74.2218 57.6754 75.907 59.3468 77.5922C63.0638 73.8445 66.7309 70.147 70.398 66.4496C71.0964 65.7453 71.7949 65.0159 72.5184 64.3116C73.9154 62.9534 75.7364 62.8779 76.9588 64.1356C78.2061 65.4184 78.1312 67.2042 76.7343 68.6127Z" fill="#64C5BC"/>
</g>
<defs>
<clipPath id="clip0_1344_135">
<rect width="81" height="103" fill="white" transform="translate(23 13)"/>
</clipPath>
</defs>
</svg>
