<svg width="128" height="128" viewBox="0 0 128 128" fill="none" xmlns="http://www.w3.org/2000/svg">
<g clip-path="url(#clip0_1344_131)">
<path d="M21 61.6007C21 61.4087 21.014 61.217 21.0406 61.0269C21.2437 59.5743 21.3973 58.1057 21.6495 56.6764C23.8667 44.6051 30.1375 35.1541 40.2156 28.2785C47.6734 23.1723 56.0047 20.7983 65.0078 21.0223C73.1599 21.2238 80.5953 23.6874 87.4036 28.1218V28.1218C87.9738 28.5019 88.7369 28.4191 89.2184 27.9316C90.7117 26.4198 92.1944 24.9187 93.6917 23.4029C93.7616 23.3321 93.8716 23.3171 93.9646 23.3526V23.3526C94.0477 23.3843 94.111 23.4519 94.1283 23.5392C95.4393 30.1632 96.7504 36.7876 98.0822 43.4842C98.6381 46.2796 96.1768 48.7445 93.3811 48.1904C87.8526 47.0949 82.348 46.0023 76.7801 44.8952C75.2727 44.5955 74.758 42.6917 75.8714 41.6323V41.6323C76.7682 40.779 76.5862 39.3327 75.4679 38.8018C68.1006 35.3041 57.5445 35.0341 48.7036 40.8874C38.9167 47.3598 34.2135 59.4759 37.1922 70.9202C38.8943 77.4374 42.5448 82.678 48.0318 86.5973C52.3781 89.6892 57.1426 91.2897 62.3032 91.6407C64.5948 91.7966 66.5307 93.5918 66.5307 95.8887C66.5307 98.2599 66.5307 100.621 66.5307 102.977C66.5307 105.187 64.7399 106.977 62.5307 106.977C62.2962 106.977 62.0617 106.977 61.8273 106.977C61.5003 106.977 61.1793 106.916 60.8578 106.856C60.8298 106.851 60.8021 106.846 60.775 106.843C53.362 106.283 46.5536 103.976 40.3948 99.8108C30.2271 92.9353 23.9339 83.4843 21.6719 71.4129C21.3981 69.939 21.2432 68.4452 21.0395 66.9689C21.0136 66.7814 21 66.5924 21 66.4031C21 64.8023 21 63.2015 21 61.6007Z" fill="#64C5BC"/>
<path d="M103.656 54.4991C105.023 54.2658 106.319 55.165 106.562 56.5302V56.5302C106.806 57.9004 105.889 59.219 104.517 59.4552C101.09 60.0453 97.6732 60.6354 94.2256 61.2254C92.8555 61.4599 91.5557 60.5588 91.3136 59.1901V59.1901C91.07 57.8128 91.9959 56.489 93.3749 56.2556C96.7967 55.6763 100.203 55.0885 103.656 54.4991Z" fill="#64C5BC"/>
<path d="M104.177 68.5146C105.546 68.7549 106.456 70.083 106.217 71.4529V71.4529C105.979 72.8134 104.688 73.7051 103.328 73.4653C100.014 72.8811 96.7188 72.2968 93.395 71.7125C92.0285 71.4723 91.113 70.1866 91.3547 68.8203V68.8203C91.5979 67.4455 92.9142 66.5096 94.2883 66.757C97.5771 67.3489 100.858 67.9326 104.177 68.5146Z" fill="#64C5BC"/>
<path d="M91.8512 93.1959C92.7455 94.2626 92.5978 95.8579 91.535 96.7568V96.7568C90.4752 97.6533 88.8953 97.5164 88.0019 96.4541C85.8419 93.8859 83.6936 91.3211 81.5236 88.7329C80.6297 87.6667 80.7606 86.087 81.823 85.1884V85.1884C82.8822 84.2925 84.4796 84.4125 85.3726 85.4743C87.5327 88.0426 89.6811 90.6076 91.8512 93.1959Z" fill="#64C5BC"/>
<path d="M100.171 81.9563C101.38 82.6509 101.787 84.2055 101.088 85.4112V85.4112C100.391 86.6139 98.8562 87.0164 97.6527 86.3205C94.7485 84.6413 91.8558 82.9753 88.9416 81.2961C87.7355 80.601 87.3208 79.0627 88.0115 77.854V77.854C88.6994 76.65 90.2365 76.2297 91.4377 76.9226C94.3539 78.605 97.2451 80.2739 100.171 81.9563Z" fill="#64C5BC"/>
<path d="M71.9975 93.2769C71.5254 91.9737 72.197 90.5349 73.4993 90.0605V90.0605C74.8079 89.5838 76.2561 90.2584 76.7318 91.5674C77.8791 94.7244 79.0214 97.8632 80.1788 101.03C80.6559 102.336 79.9851 103.781 78.6789 104.257V104.257C77.3742 104.732 75.9295 104.063 75.4516 102.76C74.2919 99.5959 73.1472 96.4506 71.9975 93.2769Z" fill="#64C5BC"/>
<path d="M62.4326 69.8453C62.4326 71.2114 61.6039 71.8833 59.9466 71.8833H58.6924V73.8317C58.6924 74.7052 58.4461 75.3547 57.9758 75.8026C57.5055 76.2505 56.8784 76.4744 56.0945 76.4744C55.3107 76.4744 54.6836 76.2505 54.2133 75.8026C53.743 75.3547 53.4966 74.6828 53.4966 73.8317V71.8833H45.2102C44.4935 71.8833 43.956 71.6817 43.5305 71.2562C43.1273 70.8307 42.9258 70.3156 42.9258 69.6661C42.9258 69.039 43.1497 68.3896 43.5753 67.7625L53.743 53.2276C54.0117 52.8468 54.3477 52.5557 54.7732 52.3541C55.1763 52.1526 55.6242 52.063 56.0721 52.063C56.7664 52.063 57.3935 52.2869 57.9086 52.7573C58.4237 53.2276 58.6924 53.8771 58.6924 54.6833V67.8297H59.9466C61.5815 67.8297 62.4326 68.5015 62.4326 69.8453ZM48.256 67.8297H53.4742V60.3271L48.256 67.8297Z" fill="#64C5BC"/>
<path d="M81.0208 66.038C81.7822 67.0458 82.1406 68.2775 82.1406 69.7333C82.1406 71.8833 81.3119 73.5406 79.677 74.7499C78.0421 75.9593 75.7801 76.564 72.8911 76.564C70.002 76.564 67.74 75.9593 66.1051 74.7499C64.4702 73.5406 63.6416 71.8609 63.6416 69.7333C63.6416 68.2327 64.0223 66.9786 64.7614 65.9708C65.5229 64.963 66.5979 64.2687 68.0088 63.888C66.8218 63.44 65.9036 62.7234 65.2541 61.7604C64.6046 60.7973 64.2687 59.6999 64.2687 58.4234C64.2687 56.4301 65.0525 54.84 66.5979 53.6531C68.1432 52.4885 70.2484 51.8838 72.9135 51.8838C75.601 51.8838 77.7062 52.4661 79.2515 53.6307C80.7968 54.7952 81.5583 56.3854 81.5583 58.401C81.5583 59.6999 81.2223 60.8421 80.5729 61.8051C79.9234 62.7906 79.0051 63.4624 77.8406 63.8432C79.2067 64.3135 80.2817 65.0301 81.0208 66.038ZM77.2135 69.3301C77.2135 67.2025 75.7801 66.1499 72.9135 66.1499C70.0468 66.1499 68.6135 67.2025 68.6135 69.3301C68.6135 71.4577 70.0468 72.5104 72.9135 72.5104C75.7801 72.5104 77.2135 71.4577 77.2135 69.3301ZM69.2406 59.0281C69.2406 61.0661 70.4499 62.0963 72.8911 62.0963C75.3322 62.0963 76.5416 61.0661 76.5416 59.0281C76.5416 57.0124 75.3322 55.9822 72.8911 55.9822C70.4723 55.9822 69.2406 56.99 69.2406 59.0281Z" fill="#64C5BC"/>
</g>
<defs>
<clipPath id="clip0_1344_131">
<rect x="21" y="21" width="86" height="86" rx="2" fill="white"/>
</clipPath>
</defs>
</svg>
