<svg width="128" height="128" viewBox="0 0 128 128" fill="none" xmlns="http://www.w3.org/2000/svg">
<g clip-path="url(#clip0_1344_134)">
<path d="M42.721 113C42.183 112.437 41.5778 111.974 41.1743 111.345C39.7621 109.26 38.4508 107.076 37.0723 104.958C35.7273 102.872 33.7772 101.78 31.2554 101.681C28.6664 101.582 26.0774 101.449 23.4884 101.35C21.0003 101.251 20.395 100.125 21.6391 97.9741C25.2704 91.7849 28.9018 85.6289 32.5331 79.4398C33.0038 78.6786 33.4073 77.8842 33.9117 77.123C34.3488 76.428 34.147 76.097 33.4409 75.8653C32.365 75.5012 31.3227 75.1041 30.314 74.6076C28.5655 73.7471 28.0276 72.2247 28.2629 70.4374C28.4647 68.8157 28.8009 67.227 29.1708 65.6384C29.6751 63.5202 29.1371 61.6667 27.7249 60.045C26.7499 58.9197 25.7748 57.7282 24.8333 56.5698C23.3203 54.6833 23.3539 52.7306 24.6988 50.844C25.6403 49.4871 26.6826 48.1632 27.7586 46.9055C29.2716 45.1183 29.8432 43.1656 29.2044 40.8488C28.8681 39.558 28.5992 38.2341 28.3974 36.9102C27.9939 34.1963 28.8345 32.74 31.3563 31.714C32.7012 31.1845 34.0798 30.7211 35.492 30.3239C37.7111 29.6951 39.1905 28.305 39.9302 26.1537C40.3001 25.0284 40.7372 23.9362 41.1743 22.844C42.452 19.6005 44.0659 18.7731 47.5291 19.5012C48.9749 19.8322 50.4208 20.1632 51.9002 20.4611C53.2451 20.7258 54.3883 20.428 55.5315 19.6005C57.448 18.1774 59.4655 16.8535 61.5501 15.5958C63.1977 14.6029 64.8788 14.967 66.3583 16.0261C67.6359 16.9528 68.88 17.9126 70.0905 18.9055C71.8052 20.3287 73.7218 20.7258 75.8737 20.1963C77.5212 19.7991 79.1352 19.402 80.8163 19.2034C83.1027 18.9386 84.3468 19.6667 85.2882 21.7187C85.9271 23.1088 86.4651 24.532 86.9694 25.9882C87.7091 28.1395 89.1549 29.5296 91.3741 30.1585C92.5509 30.4894 93.7277 30.8535 94.8709 31.2838C98.1324 32.4421 99.0738 34.1301 98.4014 37.506C98.166 38.5982 97.9979 39.6904 97.6953 40.7826C97.1237 43.0001 97.628 44.9197 99.0402 46.7069C100.15 48.1301 101.192 49.5533 102.234 51.0426C103.579 52.9291 103.546 54.8488 102.1 56.6691C101.192 57.8275 100.251 58.9859 99.2756 60.0781C97.7962 61.766 97.3254 63.6525 97.8298 65.8369C98.1996 67.3925 98.5022 68.9481 98.6704 70.5367C98.9057 72.8535 98.0315 74.1774 95.846 75.1041C94.8373 75.5343 93.795 75.8322 92.6181 76.2625C92.7863 76.5604 92.9544 76.8582 93.1225 77.1561C97.1237 83.941 101.125 90.6927 105.126 97.4776C105.261 97.7093 105.429 97.9741 105.563 98.2057C106.471 99.8937 105.832 101.052 103.916 101.151C101.259 101.317 98.6031 101.416 95.9469 101.515C93.2906 101.615 91.2396 102.707 89.8274 104.958C88.4488 107.109 87.0703 109.293 85.6917 111.445C84.4477 113.397 83.1027 113.364 81.8923 111.345C77.723 104.329 73.5873 97.3121 69.4516 90.2956C69.2499 89.9315 69.0145 89.6005 68.7455 89.1703C68.342 89.4682 68.0058 89.6998 67.6696 89.9646C64.7107 92.3145 62.7942 92.3807 59.7008 90.2294C58.1541 89.1703 58.1541 89.1703 57.1791 90.792C53.2451 97.61 49.2439 104.395 45.2091 111.213C44.8056 111.875 44.2004 112.404 43.6624 113C43.3598 113 43.0236 113 42.721 113ZM63.5003 82.0544C79.9421 81.9221 92.6854 69.0473 92.5509 52.6644C92.4164 37.4067 79.1688 24.6313 63.6684 24.6975C47.1593 24.7637 33.8444 37.9362 34.3824 54.3192C34.8867 69.7093 47.4283 82.0875 63.5003 82.0544Z" fill="#8F519F"/>
<path d="M88.0784 53.657C88.0112 66.2338 78.025 76.9241 64.7438 77.5861C50.8573 78.248 39.2572 67.5577 38.8537 54.0873C38.4502 40.8154 49.2434 29.5624 62.4237 29.1653C76.2093 28.8012 88.1457 39.4915 88.0784 53.657ZM53.379 66.3331C53.3454 68.0542 54.1524 68.5837 55.5309 67.9549C57.1785 67.1936 58.7588 66.3 60.3391 65.5057C62.5246 64.3804 64.7438 64.4135 66.9293 65.5057C68.4423 66.2669 69.9554 67.1275 71.5021 67.8225C72.04 68.0542 72.9142 68.1865 73.3514 67.9218C73.7212 67.6901 73.8557 66.7965 73.7885 66.2338C73.5867 64.5128 73.2505 62.8248 72.9479 61.1369C72.5444 58.7208 73.2841 56.6688 75.0325 54.9809C76.243 53.7894 77.487 52.631 78.6975 51.4395C79.2018 50.9431 79.7398 50.3142 79.3027 49.6854C79.0001 49.222 78.3276 48.891 77.7224 48.7587C76.0748 48.4277 74.3937 48.2291 72.7461 47.9974C70.1908 47.6665 68.4087 46.3426 67.2655 44.092C66.5258 42.6026 65.8197 41.0802 64.9791 39.657C64.6765 39.1275 64.004 38.4986 63.5333 38.4986C63.029 38.4986 62.3901 39.1605 62.0875 39.6901C61.2469 41.1133 60.5745 42.6357 59.8347 44.1251C58.7252 46.3426 56.9095 47.6334 54.4214 47.9974C52.7738 48.2291 51.1263 48.4277 49.546 48.7587C48.9071 48.891 48.1338 49.222 47.7976 49.7185C47.3268 50.4466 48.0665 51.0754 48.5709 51.5719C49.7477 52.7303 50.9918 53.8887 52.1686 55.0471C53.917 56.7681 54.5559 58.8532 54.1524 61.2693C53.9506 63.0234 53.648 64.8107 53.379 66.3331Z" fill="#8F519F"/>
</g>
<defs>
<clipPath id="clip0_1344_134">
<rect width="85" height="98" fill="white" transform="translate(21 15)"/>
</clipPath>
</defs>
</svg>
