<svg width="128" height="128" viewBox="0 0 128 128" fill="none" xmlns="http://www.w3.org/2000/svg">
<g clip-path="url(#clip0_1344_130)">
<path d="M8.0002 65.4984C8.86738 63.4908 10.3994 62.7635 12.5963 62.8217C17.1057 62.9381 21.615 62.8799 26.1533 62.8508C29.015 62.8217 30.8361 60.3778 29.9111 57.8756C29.3619 56.3627 28.2635 55.519 26.6447 55.4317C25.2283 55.3735 23.8119 55.4317 22.4244 55.3735C20.7189 55.2862 19.4182 54.2679 18.9557 52.726C18.4932 51.213 19.0135 49.5256 20.3432 48.6818C21.0369 48.2454 21.933 48.0418 22.7713 47.9545C23.9854 47.8381 25.2283 47.9545 26.4424 47.8963C28.6104 47.809 30.1424 46.2379 30.1135 44.1431C30.0846 42.0774 28.4947 40.4772 26.3268 40.4772C24.0143 40.4481 21.7018 40.4772 19.3893 40.4772C16.9322 40.4481 15.3424 38.9934 15.3424 36.7823C15.3424 34.542 16.9611 33 19.3893 33C38.1205 33 56.8807 33 75.6408 33.0291C78.8494 33.0291 82.058 33.1746 85.2666 33.3782C89.8338 33.6692 92.6955 36.3749 93.476 40.8846C93.5049 41.0591 93.5627 41.2337 93.6494 41.5537C95.7596 41.5537 97.8697 41.5537 100.009 41.5537C103.102 41.5246 106.108 42.0774 108.594 44.0267C109.895 45.016 111.167 46.2379 112.005 47.6053C114.028 50.893 115.792 54.3552 117.671 57.7593C118.971 60.1159 119.26 62.618 118.769 65.2365C118.075 68.8442 117.526 72.481 116.803 76.0596C116.283 78.7072 115.156 81.0929 113.248 83.0422C111.831 84.4679 110.155 85.2534 108.045 85.1952C107.958 84.4097 107.9 83.6532 107.756 82.9259C106.657 77.1652 101.454 73.412 95.7307 74.3139C89.2268 75.3322 85.0932 79.1436 83.2143 85.4571C83.1854 85.6025 83.1275 85.7189 83.0697 85.9226C75.7854 85.9226 68.501 85.9226 61.2166 85.9226C61.0721 84.7006 61.0432 83.4496 60.7541 82.2858C59.251 76.1178 53.065 72.801 46.6189 74.7794C42.0518 76.2051 38.7275 79.0854 37.051 83.6823C36.6463 84.817 36.126 85.1952 34.883 85.1661C30.6627 85.0788 26.4424 85.137 22.1932 85.137C19.765 85.137 18.1463 83.6241 18.1463 81.4129C18.1463 79.2018 19.7939 77.718 22.1932 77.6889C23.5518 77.6889 24.9393 77.718 26.2979 77.6889C28.4369 77.6598 30.0557 76.0596 30.0557 73.9939C30.0557 71.87 28.4658 70.2698 26.24 70.2698C21.7596 70.2407 17.2791 70.1825 12.7986 70.2989C10.6018 70.3571 8.9252 69.717 7.94238 67.6804C8.0002 66.9531 8.0002 66.2257 8.0002 65.4984ZM91.308 62.0361C91.7705 62.0652 92.1752 62.0943 92.551 62.0943C94.8924 62.0943 97.2338 62.0943 99.6041 62.0943C102.928 62.0943 106.253 62.1234 109.577 62.0943C111.803 62.0652 112.901 60.2323 111.86 58.283C110.502 55.7518 109.085 53.2787 107.611 50.8348C106.368 48.7691 104.489 47.3726 102.148 47.0817C99.2283 46.7325 96.251 46.7616 93.2736 46.6452C92.5799 51.8531 91.944 56.8864 91.308 62.0361ZM57.6611 56.4791C59.9447 54.8498 60.9564 52.9878 60.8697 50.6312C60.783 48.4782 59.7424 47.1398 57.6611 46.9362C55.551 46.7034 53.4119 46.7616 51.3018 46.7907C50.3768 46.7907 49.7986 47.489 49.6541 48.3909C49.076 52.4059 48.4978 56.4209 48.0064 60.465C47.9486 60.9015 48.2377 61.6579 48.5846 61.8034C48.9893 62.007 49.7986 61.9198 50.1455 61.6288C50.5502 61.2797 50.7814 60.6105 50.8971 60.0286C51.1283 59.0103 51.215 57.9629 51.3596 56.8282C52.1979 56.8282 52.9494 56.8864 53.701 56.8282C54.3658 56.7701 54.6549 57.061 54.8283 57.672C55.1463 58.7194 55.5221 59.7377 55.8689 60.756C56.2736 61.8907 56.8807 62.2398 57.8057 61.9488C58.7018 61.6288 59.0775 60.756 58.7596 59.7377C58.4127 58.6612 58.0369 57.5556 57.6611 56.4791ZM65.0611 55.4608C66.5064 55.4608 67.865 55.4899 69.2236 55.4608C70.3221 55.4317 71.1314 54.7335 71.0447 53.8606C70.9291 52.7841 70.0908 52.726 69.2525 52.726C68.0096 52.726 66.7666 52.726 65.4369 52.726C65.6103 51.5622 65.7549 50.5439 65.8994 49.5256C66.1596 49.4965 66.3619 49.4383 66.5932 49.4383C68.2408 49.4383 69.9174 49.4674 71.565 49.4092C72.5189 49.3801 73.2127 48.6237 73.126 47.809C73.0104 46.878 72.3166 46.7034 71.5361 46.7325C69.9752 46.7325 68.4432 46.7616 66.8822 46.7325C63.3557 46.6452 63.2979 47.0817 62.9221 50.1075C62.4885 53.4533 61.9682 56.7992 61.5346 60.145C61.3611 61.5415 61.7658 62.0361 63.0666 62.0361C65.2635 62.0652 67.4604 62.0652 69.6572 62.0361C70.7268 62.0361 71.4205 61.367 71.3338 60.465C71.2471 59.4176 70.4955 59.3595 69.6861 59.3595C68.0096 59.3595 66.3041 59.3595 64.5119 59.3595C64.7143 58.0502 64.8877 56.8282 65.0611 55.4608ZM77.3174 52.726C77.4041 51.9695 77.5775 51.3585 77.5486 50.7766C77.5197 49.671 78.0111 49.3801 79.0518 49.4383C80.4971 49.5256 81.9424 49.4965 83.3877 49.4383C84.3705 49.4092 85.0354 48.7109 84.9486 47.8672C84.8619 46.9071 84.1682 46.7616 83.3877 46.7616C81.3064 46.7616 79.1963 46.7616 77.115 46.7616C75.8721 46.7616 75.1783 47.3435 75.0049 48.5073C74.4268 52.4641 73.9064 56.4209 73.3572 60.3778C73.2127 61.4542 73.7041 62.0361 74.8025 62.0652C77.0283 62.0943 79.283 62.0943 81.5088 62.0652C82.5494 62.0652 83.2721 61.3961 83.2143 60.5232C83.1275 59.4758 82.376 59.3885 81.5666 59.3885C79.89 59.3885 78.1846 59.3885 76.3635 59.3885C76.5369 58.0211 76.7104 56.7701 76.8838 55.4608C78.358 55.4608 79.7744 55.4899 81.1619 55.4608C82.2025 55.4317 82.9252 54.7044 82.8385 53.8606C82.7229 52.8132 81.9713 52.755 81.1619 52.755C79.9479 52.7259 78.7049 52.726 77.3174 52.726ZM41.4158 49.7001C41.6182 49.671 41.7627 49.6129 41.9072 49.6129C43.3814 49.6129 44.8557 49.642 46.3299 49.5838C47.3127 49.5547 48.0932 48.8273 48.0354 47.9836C47.9486 46.9653 47.2549 46.7325 46.3588 46.7325C44.5666 46.7616 42.7455 46.7325 40.9533 46.7325C39.508 46.7325 38.901 47.2271 38.6697 48.6527C38.4385 50.1947 38.2361 51.7367 38.0049 53.2787C37.6869 55.6936 37.3111 58.0793 37.051 60.4941C36.9932 60.9015 37.2533 61.5706 37.5713 61.7743C37.9182 62.007 38.6119 61.9779 38.9588 61.7452C39.3924 61.4542 39.7393 60.8724 39.8549 60.3778C40.1728 58.8939 40.3174 57.381 40.5486 55.8099C41.7627 55.8099 42.9189 55.839 44.0752 55.8099C45.1158 55.7809 45.8963 55.0535 45.8963 54.1807C45.8963 53.366 45.3182 52.9296 44.1041 52.9296C43.0635 52.9296 42.0518 52.9296 40.9244 52.9296C41.0979 51.7658 41.2713 50.7475 41.4158 49.7001Z" fill="#8F519F"/>
<path d="M49.6826 78.5615C54.3944 78.5615 57.603 82.5474 56.649 87.2025C55.724 91.654 51.7928 94.9707 47.428 94.9707C43.0342 94.9707 39.9412 91.5958 40.317 87.2025C40.7217 82.5474 45.0287 78.5615 49.6826 78.5615Z" fill="#8F519F"/>
<path d="M103.651 85.6318C103.651 91.0433 98.5057 95.6402 93.1869 94.942C89.5448 94.4765 86.9432 91.2179 87.1744 87.4938C87.4924 82.5769 91.8283 78.5328 96.6846 78.591C100.703 78.591 103.651 81.5877 103.651 85.6318Z" fill="#8F519F"/>
<path d="M16.5849 51.6785C16.6138 53.7442 14.9084 55.4316 12.8849 55.4316C10.8615 55.4316 9.15603 53.7151 9.18493 51.6785C9.21384 49.6419 10.8037 48.0126 12.8271 48.0126C14.9084 47.9835 16.556 49.6128 16.5849 51.6785Z" fill="#8F519F"/>
<path d="M51.7354 54.1805C51.9377 52.6967 52.0822 51.3584 52.3135 50.0491C52.3424 49.8164 52.7471 49.4963 53.0072 49.4963C53.8166 49.4091 54.6549 49.4672 55.4932 49.4672C57.1408 49.4963 57.8346 49.9909 57.8924 51.1838C57.9791 52.7549 56.9963 54.006 55.5221 54.1805C55.2619 54.2096 55.0307 54.2096 54.7705 54.2096C53.8166 54.1805 52.8627 54.1805 51.7354 54.1805Z" fill="#8F519F"/>
</g>
<defs>
<clipPath id="clip0_1344_130">
<rect width="111" height="62" fill="white" transform="translate(8 33)"/>
</clipPath>
</defs>
</svg>
